<svg xmlns="http://www.w3.org/2000/svg" xmlns:xlink="http://www.w3.org/1999/xlink" width="500" zoomAndPan="magnify" viewBox="0 0 375 374.999991" height="500" preserveAspectRatio="xMidYMid meet" version="1.0"><defs><clipPath id="afc665fedf"><path d="M 187 125 L 312.394531 125 L 312.394531 250 L 187 250 Z M 187 125 " clip-rule="nonzero"/></clipPath><clipPath id="1e72d3c611"><path d="M 62.644531 249 L 188 249 L 188 375 L 62.644531 375 Z M 62.644531 249 " clip-rule="nonzero"/></clipPath><clipPath id="acc0671e3d"><path d="M 187 0 L 312.394531 0 L 312.394531 126 L 187 126 Z M 187 0 " clip-rule="nonzero"/></clipPath><clipPath id="b59ec3463d"><path d="M 62.644531 0 L 188 0 L 188 126 L 62.644531 126 Z M 62.644531 0 " clip-rule="nonzero"/></clipPath><clipPath id="b0527ca1a4"><path d="M 62.644531 125 L 188 125 L 188 250 L 62.644531 250 Z M 62.644531 125 " clip-rule="nonzero"/></clipPath></defs><g clip-path="url(#afc665fedf)"><path fill="#1abcfe" d="M 187.519531 187.5 C 187.519531 153.023438 215.476562 125.074219 249.957031 125.074219 C 284.441406 125.074219 312.394531 153.023438 312.394531 187.5 C 312.394531 221.976562 284.441406 249.925781 249.957031 249.925781 C 215.476562 249.925781 187.519531 221.976562 187.519531 187.5 Z M 187.519531 187.5 " fill-opacity="1" fill-rule="nonzero"/></g><g clip-path="url(#1e72d3c611)"><path fill="#0acf83" d="M 62.644531 312.351562 C 62.644531 277.875 90.601562 249.925781 125.082031 249.925781 L 187.519531 249.925781 L 187.519531 312.351562 C 187.519531 346.828125 159.566406 374.777344 125.082031 374.777344 C 90.601562 374.777344 62.644531 346.828125 62.644531 312.351562 Z M 62.644531 312.351562 " fill-opacity="1" fill-rule="nonzero"/></g><g clip-path="url(#acc0671e3d)"><path fill="#ff7262" d="M 187.519531 0.222656 L 187.519531 125.074219 L 249.957031 125.074219 C 284.441406 125.074219 312.394531 97.125 312.394531 62.648438 C 312.394531 28.171875 284.441406 0.222656 249.957031 0.222656 Z M 187.519531 0.222656 " fill-opacity="1" fill-rule="nonzero"/></g><g clip-path="url(#b59ec3463d)"><path fill="#f24e1e" d="M 62.644531 62.648438 C 62.644531 97.125 90.601562 125.074219 125.082031 125.074219 L 187.519531 125.074219 L 187.519531 0.222656 L 125.082031 0.222656 C 90.601562 0.222656 62.644531 28.171875 62.644531 62.648438 Z M 62.644531 62.648438 " fill-opacity="1" fill-rule="nonzero"/></g><g clip-path="url(#b0527ca1a4)"><path fill="#a259ff" d="M 62.644531 187.5 C 62.644531 221.976562 90.601562 249.925781 125.082031 249.925781 L 187.519531 249.925781 L 187.519531 125.074219 L 125.082031 125.074219 C 90.601562 125.074219 62.644531 153.023438 62.644531 187.5 Z M 62.644531 187.5 " fill-opacity="1" fill-rule="nonzero"/></g></svg>