<svg xmlns="http://www.w3.org/2000/svg" xmlns:xlink="http://www.w3.org/1999/xlink" width="500" zoomAndPan="magnify" viewBox="0 0 375 374.999991" height="500" preserveAspectRatio="xMidYMid meet" version="1.0"><defs><clipPath id="b311c12bb1"><path d="M 187.5 0 C 83.945312 0 0 83.945312 0 187.5 C 0 291.054688 83.945312 375 187.5 375 C 291.054688 375 375 291.054688 375 187.5 C 375 83.945312 291.054688 0 187.5 0 Z M 187.5 0 " clip-rule="nonzero"/></clipPath><clipPath id="de8b96236f"><path d="M 18.75 18.539062 L 356.25 18.539062 L 356.25 356.789062 L 18.75 356.789062 Z M 18.75 18.539062 " clip-rule="nonzero"/></clipPath></defs><g clip-path="url(#b311c12bb1)"><rect x="-37.5" width="450" fill="#ffffff" y="-37.499999" height="449.999989" fill-opacity="1"/></g><g clip-path="url(#de8b96236f)"><path fill="#000000" d="M 176.449219 18.832031 C 175.722656 18.898438 173.414062 19.128906 171.335938 19.292969 C 123.398438 23.621094 78.496094 49.511719 50.058594 89.304688 C 34.222656 111.429688 24.09375 136.527344 20.269531 163.109375 C 18.914062 172.390625 18.75 175.132812 18.75 187.714844 C 18.75 200.296875 18.914062 203.035156 20.269531 212.316406 C 29.4375 275.753906 74.539062 329.054688 135.703125 348.800781 C 146.65625 352.335938 158.203125 354.746094 171.335938 356.199219 C 176.449219 356.757812 198.550781 356.757812 203.664062 356.199219 C 226.332031 353.6875 245.53125 348.074219 264.46875 338.398438 C 267.371094 336.914062 267.933594 336.515625 267.535156 336.1875 C 267.273438 335.988281 254.902344 319.378906 240.054688 299.300781 L 213.066406 262.808594 L 179.253906 212.710938 C 160.644531 185.171875 145.335938 162.648438 145.207031 162.648438 C 145.074219 162.617188 144.941406 184.875 144.875 212.050781 C 144.777344 259.636719 144.742188 261.554688 144.148438 262.675781 C 143.292969 264.292969 142.632812 264.953125 141.246094 265.679688 C 140.191406 266.210938 139.265625 266.308594 134.285156 266.308594 L 128.578125 266.308594 L 127.058594 265.351562 C 126.070312 264.722656 125.34375 263.898438 124.851562 262.941406 L 124.15625 261.453125 L 124.222656 195.242188 L 124.320312 128.996094 L 125.34375 127.710938 C 125.871094 127.015625 126.992188 126.125 127.785156 125.695312 C 129.136719 125.035156 129.667969 124.96875 135.375 124.96875 C 142.105469 124.96875 143.226562 125.234375 144.972656 127.148438 C 145.46875 127.675781 163.78125 155.285156 185.683594 188.539062 C 207.589844 221.792969 237.546875 267.199219 252.261719 289.492188 L 278.984375 330.011719 L 280.335938 329.117188 C 292.3125 321.324219 304.980469 310.230469 315.011719 298.671875 C 336.355469 274.136719 350.113281 244.214844 354.730469 212.316406 C 356.085938 203.035156 356.25 200.296875 356.25 187.714844 C 356.25 175.132812 356.085938 172.390625 354.730469 163.109375 C 345.5625 99.671875 300.460938 46.375 239.296875 26.625 C 228.507812 23.125 217.027344 20.714844 204.160156 19.261719 C 200.992188 18.929688 179.1875 18.566406 176.449219 18.832031 Z M 245.53125 121.007812 C 247.113281 121.800781 248.402344 123.316406 248.863281 124.902344 C 249.128906 125.761719 249.195312 144.121094 249.128906 185.5 L 249.027344 244.875 L 238.570312 228.828125 L 228.078125 212.777344 L 228.078125 169.617188 C 228.078125 141.710938 228.210938 126.027344 228.410156 125.265625 C 228.9375 123.417969 230.089844 121.964844 231.675781 121.105469 C 233.027344 120.410156 233.523438 120.347656 238.703125 120.347656 C 243.585938 120.347656 244.441406 120.410156 245.53125 121.007812 Z M 245.53125 121.007812 " fill-opacity="1" fill-rule="nonzero"/></g><path fill="#000000" d="M 277.335938 330.738281 C 276.179688 331.464844 275.816406 331.957031 276.839844 331.398438 C 277.566406 330.96875 278.753906 330.078125 278.554688 330.042969 C 278.457031 330.042969 277.894531 330.375 277.335938 330.738281 Z M 275.058594 332.222656 C 274.464844 332.683594 274.464844 332.71875 275.191406 332.355469 C 275.585938 332.15625 275.917969 331.925781 275.917969 331.859375 C 275.917969 331.59375 275.75 331.660156 275.058594 332.222656 Z M 273.410156 333.214844 C 272.816406 333.675781 272.816406 333.710938 273.542969 333.347656 C 273.9375 333.148438 274.265625 332.917969 274.265625 332.851562 C 274.265625 332.585938 274.101562 332.652344 273.410156 333.214844 Z M 271.757812 334.203125 C 271.164062 334.667969 271.164062 334.699219 271.890625 334.335938 C 272.289062 334.136719 272.617188 333.90625 272.617188 333.839844 C 272.617188 333.578125 272.453125 333.644531 271.757812 334.203125 Z M 269.253906 335.523438 C 268 336.1875 268.066406 336.449219 269.316406 335.824219 C 269.878906 335.523438 270.308594 335.226562 270.308594 335.160156 C 270.308594 334.929688 270.273438 334.964844 269.253906 335.523438 Z M 269.253906 335.523438 " fill-opacity="1" fill-rule="nonzero"/></svg>